PathFileType  4	(X/Y/Z) C:\Users\antoi\Documents\MyRepositories\mobilecap\ResultsAnalysis
DataRate	CameraRate	NumFrames	NumMarkers	Units	OrigDataRate	OrigDataStartFrame	OrigNumFrames
100.0	100.0	4	51	mm	100.0	824	1318
Frame#	Time	r_knee			r_shank_antsup			r_ankle			r_calc			r_5meta			r_toe			L_knee			L_shank_antsup			L_ankle			L_calc			L_5meta			L_toe			r_sh2			r_sh3			r_sh4			L_sh2			L_sh3			r_thigh1			r_thigh2			r_thigh3			r_thigh4			r_thigh5			L_thigh1			L_thigh2			L_thigh3			L_thigh4			r.ASIS			r.PSIS			L.ASIS			L.PSIS			C7			R_Shoulder			L_Shoulder			R_Sternum			L_Sternum			R_humerus			R_elbow_med			R_elbow_lat			R_forearm			R_wrist_radius			R_wrist_ulna			L_humerus			L_elbow_med			L_elbow_lat			L_forearm			L_wrist_radius			L_wrist_ulna			R_HJC			L_HJC			R_HJC_reg			L_HJC_reg			
		X1	Y1	Z1	X2	Y2	Z2	X3	Y3	Z3	X4	Y4	Z4	X5	Y5	Z5	X6	Y6	Z6	X7	Y7	Z7	X8	Y8	Z8	X9	Y9	Z9	X10	Y10	Z10	X11	Y11	Z11	X12	Y12	Z12	X13	Y13	Z13	X14	Y14	Z14	X15	Y15	Z15	X16	Y16	Z16	X17	Y17	Z17	X18	Y18	Z18	X19	Y19	Z19	X20	Y20	Z20	X21	Y21	Z21	X22	Y22	Z22	X23	Y23	Z23	X24	Y24	Z24	X25	Y25	Z25	X26	Y26	Z26	X27	Y27	Z27	X28	Y28	Z28	X29	Y29	Z29	X30	Y30	Z30	X31	Y31	Z31	X32	Y32	Z32	X33	Y33	Z33	X34	Y34	Z34	X35	Y35	Z35	X36	Y36	Z36	X37	Y37	Z37	X38	Y38	Z38	X39	Y39	Z39	X40	Y40	Z40	X41	Y41	Z41	X42	Y42	Z42	X43	Y43	Z43	X44	Y44	Z44	X45	Y45	Z45	X46	Y46	Z46	X47	Y47	Z47	X48	Y48	Z48	X49	Y49	Z49	X50	Y50	Z50	X51	Y51	Z51	

824	8.23000000	-214.87021	500.13485	-467.60320	-172.88855	433.11052	-469.02060	-265.36756	101.72165	-422.01690	-335.38763	63.92571	-454.90875	-162.80291	46.33347	-385.08741	-115.57397	72.73788	-440.01005	-266.09877	496.72971	-941.10326	-231.46775	413.25558	-975.29607	-288.81022	102.18661	-1009.52098	-342.45662	62.22388	-955.51481	-191.57265	43.48314	-1072.19806	-141.41610	68.46533	-1025.34187	-205.52231	326.28015	-432.23044	-250.49688	455.98186	-448.38691	-275.50935	344.39417	-427.88192	-318.17717	420.58471	-952.59141	-324.43277	302.30420	-986.87714	-251.57832	817.46713	-493.47356	-223.51584	710.29451	-478.57375	-273.24005	675.58510	-451.43522	-361.35790	787.45196	-486.12253	-326.26829	676.39667	-471.02737	-309.11735	767.46811	-923.23060	-264.34312	637.37252	-937.69725	-401.55098	727.15697	-866.37938	-354.12891	597.89214	-893.92287	-243.23753	947.48179	-564.78876	-418.92450	1011.85324	-648.02115	-246.03410	911.42031	-813.97177	-423.18091	1012.53477	-748.17064	-259.39541	1403.75407	-748.40991	-174.51201	1390.37424	-592.45735	-184.28384	1372.64764	-903.17273	-136.85875	1328.34754	-725.49976	-132.27237	1324.20989	-759.87322	-132.73808	1305.78919	-499.52632	-75.49539	1091.34571	-471.69336	-56.25872	1143.35812	-411.60916	18.20459	1218.58493	-500.24953	80.82745	1278.51596	-591.84958	115.15613	1269.35934	-582.77968	-124.47435	1299.76107	-973.09790	-7.54162	1086.58175	-948.10105	1.38441	1141.03247	-1015.85769	35.96276	1214.08817	-940.84638	95.85690	1296.49662	-836.95802	127.58625	1291.94556	-850.37486	-334.20618	882.04935	-580.76159	-337.21454	860.25341	-786.05763	-323.95716	867.50554	-595.95258	-331.01801	868.63459	-761.97952	
825	8.24000000	-215.41500	499.88436	-463.35696	-172.63315	432.65813	-465.05194	-265.89738	100.93908	-421.60669	-335.52159	63.56110	-454.86975	-163.03199	46.32717	-385.09275	-115.93087	73.43482	-439.66812	-266.08233	496.47438	-940.82080	-231.50822	413.32198	-975.31070	-288.84247	102.26521	-1009.42491	-342.54173	62.13454	-955.51978	-191.50661	43.27404	-1071.16953	-141.46154	69.01564	-1025.16072	-205.88588	325.47682	-429.50026	-250.74617	455.55650	-444.91438	-275.99286	343.81284	-425.42946	-317.86937	420.67887	-951.69934	-324.67961	302.44271	-985.88121	-257.28756	816.77783	-488.41613	-227.72020	710.13854	-473.63795	-276.74297	674.55548	-446.73816	-366.62996	784.94342	-481.58951	-329.74368	674.53968	-466.09790	-316.34379	765.21933	-919.52523	-268.20119	636.54380	-935.91552	-407.36864	721.95291	-862.89305	-356.87609	594.32661	-891.97352	-247.34301	942.75583	-561.99997	-421.21163	1012.14432	-643.00116	-253.12964	906.03228	-810.67813	-426.60899	1012.58268	-743.15264	-255.85847	1398.67506	-746.72539	-169.36968	1385.94636	-592.60907	-180.00913	1367.64841	-900.17319	-133.96333	1322.15372	-724.67223	-129.66134	1317.69717	-758.04306	-124.37826	1304.03225	-500.00051	-61.10045	1091.20252	-472.74873	-42.51459	1143.81432	-412.78354	28.20404	1222.21806	-501.41797	87.31088	1284.97074	-593.38334	122.17164	1277.10524	-584.65579	-117.61587	1297.78921	-969.05581	5.14584	1088.64671	-942.63623	12.83932	1142.90788	-1010.44175	44.90150	1217.73314	-935.63376	101.15704	1302.77440	-832.26544	133.11094	1299.25269	-845.29313	-339.96691	879.94718	-576.49273	-345.73303	857.78385	-781.68814	-330.31685	865.43812	-591.87378	-339.24541	866.16290	-757.58398	
826	8.25000000	-216.12830	499.56107	-458.95361	-172.77580	432.04962	-460.99374	-266.34842	100.19884	-420.97610	-335.47024	63.13014	-454.82868	-163.30918	46.32574	-384.88341	-116.30793	74.08952	-439.20080	-266.56837	496.09014	-940.37281	-231.83877	413.35179	-975.35465	-288.94876	102.23930	-1009.53904	-342.67755	62.02227	-955.55421	-191.52078	42.62502	-1069.55781	-141.59872	69.55253	-1024.91928	-206.51002	324.90892	-426.46070	-251.10988	455.06477	-441.42710	-276.64376	343.18393	-422.90645	-318.04731	420.49290	-951.01772	-325.15969	302.32493	-985.02292	-263.19999	816.35942	-483.08118	-231.65204	709.88817	-468.81702	-280.12696	673.49491	-441.98607	-371.66862	782.36542	-476.89614	-333.06511	672.68195	-461.12122	-323.83908	762.98590	-916.18124	-272.40805	635.74066	-934.08431	-413.01881	716.98924	-859.05958	-359.92652	590.95980	-890.44749	-251.40917	937.55330	-559.37300	-423.29002	1012.05334	-637.80418	-260.44888	900.09409	-807.03001	-429.81000	1012.06311	-738.20740	-252.42375	1392.85687	-744.97316	-164.25135	1380.86859	-592.70229	-175.54421	1362.15859	-897.13822	-131.10467	1315.36197	-722.74886	-126.95238	1310.69187	-756.34816	-115.78618	1301.72329	-500.28839	-47.34684	1091.14999	-473.60306	-28.84025	1143.89758	-414.03453	37.94746	1225.34042	-502.75479	93.88828	1290.84741	-594.95289	128.83852	1284.14946	-586.68174	-111.02384	1295.40195	-964.86457	17.42506	1089.85393	-937.12199	23.65727	1144.03134	-1004.98098	53.43587	1220.55681	-930.34893	106.09499	1307.96069	-827.57122	138.39908	1305.27477	-840.15588	-345.66425	877.52188	-572.03911	-354.34387	854.86262	-777.07850	-336.72921	863.34361	-587.76167	-347.44568	863.36015	-752.83747	
827	8.26000000	-216.79054	499.17362	-454.77392	-173.31957	431.29158	-456.90979	-266.76168	99.82554	-419.93052	-335.48627	62.72196	-454.59998	-163.60569	46.40455	-384.48858	-116.74295	74.82847	-438.63225	-267.93228	495.63541	-939.71369	-232.45145	413.29272	-975.06808	-289.26080	102.19928	-1009.71420	-342.87771	61.85240	-955.61664	-191.68135	42.41769	-1068.43694	-141.91976	70.37642	-1024.72533	-207.21274	324.43302	-423.27183	-251.30328	454.45662	-437.76608	-276.87306	342.31242	-419.95585	-318.77290	420.24219	-950.38755	-325.79274	302.21815	-984.63830	-268.63212	815.58858	-478.20883	-235.22767	709.55459	-464.09296	-283.15070	672.43411	-437.27742	-376.41630	779.90372	-471.89979	-336.13041	670.68202	-456.42796	-331.42103	761.07762	-914.41056	-276.96230	634.95481	-932.34333	-418.64834	712.32165	-854.91524	-363.30461	587.86295	-889.10241	-255.53355	931.94485	-556.69505	-425.29605	1011.67786	-632.72906	-267.70639	893.72770	-803.19957	-432.93013	1011.10490	-733.24294	-249.10494	1386.36303	-743.10922	-159.29803	1375.28131	-592.67310	-171.27071	1356.00612	-893.97457	-128.48105	1308.18505	-721.01288	-124.16483	1303.37481	-754.56851	-107.14572	1298.89891	-500.55507	-32.83683	1091.00768	-474.94300	-15.33333	1143.63471	-415.34957	47.35809	1227.80563	-504.52013	100.51265	1296.03276	-596.65062	135.16496	1290.37115	-588.75864	-104.85805	1292.46529	-960.70479	28.93459	1090.42862	-931.60050	33.81358	1144.40646	-999.65816	61.36184	1222.45455	-925.15562	110.76075	1311.84316	-822.84560	143.30058	1309.97187	-835.13076	-351.37730	874.83310	-567.48424	-362.90791	851.64030	-772.32491	-343.11800	861.21097	-583.48810	-355.60164	860.27411	-747.84301	
